#!OML:ASF Y:\EmotionMaleHayes\Project 1\Capture day 1\Session 1\Male1.ASF
:FULLY-SPECIFIED
:DEGREES
389
root -16.9031 16.9981 -0.278077 -11.5703 80.5192 -12.7831
lowerback 7.03427 1.61311 -6.32751
upperback 2.41498 1.77269 0.340352
thorax -1.63793 0.899434 3.75593
lowerneck -26.8525 3.66448 3.83193
upperneck 31.1394 2.73792 3.56552
head 15.4915 2.30285 1.47545
rclavicle 1.61016e-014 -9.54166e-015
rhumerus -64.2852 19.0491 -88.3042
rradius 66.8832
rwrist -5.72009
rhand 2.4839 -35.3908
rfingers 7.12502
rthumb 27.9673 -63.3275
lclavicle 1.61016e-014 -9.54166e-015
lhumerus -14.6722 -38.1839 83.1298
lradius 81.4333
lwrist 7.08875
lhand -38.1878 -57.3247
lfingers 7.12502
lthumb -11.2204 -27.6448
rfemur 8.3211 -10.0819 9.23116
rtibia 9.99052
rfoot -21.6528 -14.2396
rtoes -4.02783
lfemur 3.91829 3.09663 -14.17
ltibia 35.1142
lfoot -14.0147 -0.432622
ltoes -20.5845
390
root -16.8462 16.9989 -0.287361 -7.06645 80.4311 -8.45124
lowerback 7.1031 1.75809 -6.30734
upperback 2.45462 1.96272 0.243914
thorax -1.65238 0.994516 3.62575
lowerneck -26.8595 3.62198 3.64793
upperneck 30.9225 2.85616 3.2659
head 15.3887 2.27572 1.39465
rclavicle -5.26779e-015 1.03368e-014
rhumerus -62.9085 18.8552 -87.7077
rradius 66.7336
rwrist -5.8741
rhand 2.52677 -36.358
rfingers 7.12502
rthumb 28.0083 -64.288
lclavicle -5.26779e-015 1.03368e-014
lhumerus -17.2166 -37.2151 84.4993
lradius 82.6252
lwrist 8.15786
lhand -38.4413 -57.2542
lfingers 7.12502
lthumb -11.4648 -27.5877
rfemur 8.38766 -10.7569 8.01025
rtibia 9.99157
rfoot -21.541 -13.4564
rtoes -4.67384
lfemur 1.81322 3.8075 -14.8878
ltibia 38.7188
lfoot -12.1676 -1.18883
ltoes -16.9303
391
root -16.794 16.9958 -0.294544 -5.12451 80.1721 -6.67568
lowerback 7.15587 1.89104 -5.97029
upperback 2.67864 2.17221 0.32929
thorax -1.46419 1.09082 3.50822
lowerneck -27.5533 3.63699 3.60736
upperneck 30.9338 3.01787 2.75379
head 15.5502 2.24985 1.2334
rclavicle -1.51076e-014 3.57812e-015
rhumerus -60.7266 18.9324 -87.0641
rradius 66.2042
rwrist -6.15684
rhand 2.20179 -37.5649
rfingers 7.12502
rthumb 27.6976 -65.5453
lclavicle -1.51076e-014 3.57812e-015
lhumerus -19.4264 -36.5203 85.7963
lradius 83.7427
lwrist 7.63913
lhand -41.2454 -57.4137
lfingers 7.12502
lthumb -14.1681 -27.9168
rfemur 8.46477 -11.3046 7.36804
rtibia 10.0051
rfoot -21.5424 -12.5756
rtoes -4.22041
lfemur -0.33419 4.57219 -15.0518
ltibia 42.261
lfoot -10.2402 -1.66711
ltoes -13.9819
392
root -16.7592 16.9954 -0.292706 -9.37217 79.7962 -11.035
lowerback 7.35254 1.95741 -4.68226
upperback 3.09623 2.36377 0.744349
thorax -1.13162 1.17775 3.19956
lowerneck -28.3132 3.73897 3.66729
upperneck 30.8166 3.30261 2.1064
head 15.6727 2.26055 1.0198
rclavicle 3.44394e-014 -1.59028e-014
rhumerus -58.0461 19.0397 -86.341
rradius 65.4655
rwrist -6.26217
rhand 2.24921 -38.5757
rfingers 7.12502
rthumb 27.7429 -66.5487
lclavicle 3.44394e-014 -1.59028e-014
lhumerus -21.0492 -35.1851 86.7114
lradius 84.2253
lwrist 7.75124
lhand -41.5318 -57.5278
lfingers 7.12502
lthumb -14.444 -28.0505
rfemur 8.59987 -11.2072 8.35838
rtibia 9.79845
rfoot -21.5956 -12.3003
rtoes -3.73907
lfemur -2.58973 5.41701 -13.7676
ltibia 45.8625
lfoot -8.40918 -2.21989
ltoes -11.984
393
root -16.7229 16.9916 -0.291416 -13.6572 79.4614 -15.3092
lowerback 7.99403 2.03789 -3.34856
upperback 3.30922 2.55818 1.1496
thorax -1.24897 1.2842 2.83476
lowerneck -28.5602 3.71838 3.51862
upperneck 30.5925 3.48671 1.62437
head 15.6258 2.23403 0.875979
rclavicle 1.83876e-014 -1.78906e-015
rhumerus -55.8474 19.0497 -85.7632
rradius 64.8647
rwrist -6.18898
rhand 2.97217 -40.4592
rfingers 7.12502
rthumb 28.434 -68.3189
lclavicle 1.83876e-014 -1.78906e-015
lhumerus -23.3781 -34.0238 88.07
lradius 84.8387
lwrist 8.0872
lhand -41.7469 -56.2789
lfingers 7.12502
lthumb -14.6513 -26.8165
rfemur 8.97537 -11.1284 9.33855
rtibia 9.41169
rfoot -21.7227 -12.0357
rtoes -2.95137
lfemur -4.63144 6.18912 -12.4681
ltibia 49.0804
lfoot -6.91978 -3.00387
ltoes -11.2494
394
root -16.6751 16.9748 -0.298874 -16.9758 79.0296 -18.6323
lowerback 8.42223 2.12694 -1.95024
upperback 3.5731 2.79036 1.42237
thorax -1.1811 1.40945 2.29957
lowerneck -28.5729 3.67424 3.43041
upperneck 30.1091 3.59331 1.19625
head 15.4097 2.19081 0.718485
rclavicle -2.48481e-014 -1.05356e-014
rhumerus -53.601 19.0135 -85.3464
rradius 64.2488
rwrist -5.96212
rhand 1.17535 -40.0509
rfingers 7.12502
rthumb 26.7157 -68.185
lclavicle -2.48481e-014 -1.05356e-014
lhumerus -25.7633 -32.949 89.3021
lradius 85.2574
lwrist 8.17929
lhand -41.7064 -55.3497
lfingers 7.12502
lthumb -14.6123 -25.8844
rfemur 9.3938 -11.376 9.98198
rtibia 9.06678
rfoot -21.7816 -11.3801
rtoes -2.95646
lfemur -6.45402 7.01231 -11.3815
ltibia 51.6947
lfoot -7.47703 -4.00844
ltoes -18.3714
395
root -16.6278 16.9486 -0.309595 -20.5457 78.4742 -22.2239
lowerback 9.31708 2.25921 -0.472784
upperback 3.52882 3.09836 1.77575
thorax -1.68081 1.57772 1.76801
lowerneck -28.3297 3.58459 3.28654
upperneck 29.7119 3.6683 0.803274
head 15.1799 2.14001 0.578473
rclavicle -1.49461e-014 -8.79622e-015
rhumerus -51.8807 18.8778 -84.9681
rradius 63.6969
rwrist -5.27732
rhand 0.220393 -39.926
rfingers 7.12502
rthumb 25.8015 -68.1963
lclavicle -1.49461e-014 -8.79622e-015
lhumerus -28.5889 -31.8118 90.8838
lradius 85.4035
lwrist 8.08969
lhand -41.3529 -54.4173
lfingers 7.12502
lthumb -14.2717 -24.9277
rfemur 9.8069 -11.6752 10.7316
rtibia 8.73013
rfoot -21.7185 -10.7184
rtoes -3.88603
lfemur -8.2742 7.94413 -10.1578
ltibia 53.8561
lfoot -8.11796 -5.02447
ltoes -27.3308
396
root -16.584 16.9177 -0.317737 -24.3115 77.7833 -26.0029
lowerback 10.0827 2.35184 1.02848
upperback 3.65891 3.39361 2.18839
thorax -1.91642 1.73614 1.29161
lowerneck -28.2259 3.54137 3.23415
upperneck 29.2409 3.77895 0.33134
head 14.9544 2.10101 0.401369
rclavicle 1.09456e-014 -6.16232e-015
rhumerus -49.8075 18.8966 -84.5224
rradius 63.2201
rwrist -4.34425
rhand -0.212334 -39.8069
rfingers 7.12502
rthumb 25.387 -68.1368
lclavicle 1.09456e-014 -6.16232e-015
lhumerus -30.9684 -30.4262 92.1952
lradius 85.3382
lwrist 8.02539
lhand -40.7256 -53.1133
lfingers 7.12502
lthumb -13.6672 -23.5821
rfemur 10.2329 -11.8534 11.7048
rtibia 8.32197
rfoot -21.641 -10.1983
rtoes -4.0106
lfemur -10.1025 9.05909 -8.72532
ltibia 55.5955
lfoot -8.22797 -5.5256
ltoes -14.0856
397
root -16.5411 16.884 -0.324838 -27.259 77.0875 -29.0178
lowerback 10.5841 2.47228 2.30918
upperback 3.96346 3.7199 2.61179
thorax -1.82748 1.91347 0.961825
lowerneck -28.2783 3.46598 3.18538
upperneck 28.6619 3.83735 -0.184824
head 14.7175 2.03177 0.198254
rclavicle -4.36581e-014 -2.36554e-014
rhumerus -47.3472 18.9385 -83.9517
rradius 62.8238
rwrist -3.30852
rhand -0.715395 -39.967
rfingers 7.12502
rthumb 24.905 -68.3644
lclavicle -4.36581e-014 -2.36554e-014
lhumerus -33.0559 -29.0457 93.2989
lradius 84.8851
lwrist 7.26338
lhand -40.0331 -52.1052
lfingers 7.12502
lthumb -12.9997 -22.5302
rfemur 10.5731 -12.1327 12.5389
rtibia 7.95969
rfoot -21.4838 -9.64674
rtoes -4.2283
lfemur -12.0226 10.2643 -7.42164
ltibia 56.9955
lfoot -8.25914 -5.70807
ltoes -16.3576
398
root -16.5004 16.8515 -0.329542 -29.1395 76.678 -30.9896
lowerback 11.0333 2.57007 3.13545
upperback 4.26975 3.97697 3.01438
thorax -1.72705 2.05693 0.874915
lowerneck -28.0927 3.40995 3.12675
upperneck 27.8218 3.92035 -0.686684
head 14.3215 1.97681 0.00473886
rclavicle -3.6477e-014 -1.70955e-014
rhumerus -44.8177 18.9484 -83.3309
rradius 62.4161
rwrist -1.9285
rhand -1.10343 -40.2322
rfingers 7.12502
rthumb 24.5331 -68.6806
lclavicle -3.6477e-014 -1.70955e-014
lhumerus -35.1923 -27.594 94.3398
lradius 84.348
lwrist 6.38751
lhand -38.9769 -50.8594
lfingers 7.12502
lthumb -11.9814 -21.2223
rfemur 10.9235 -12.5259 12.9702
rtibia 7.61325
rfoot -21.3489 -9.05115
rtoes -4.60443
lfemur -14.0464 11.3039 -6.54257
ltibia 58.0258
lfoot -8.5636 -5.3563
ltoes -15.6811
